<svg width="67" height="85" viewBox="0 0 67 85" fill="none" xmlns="http://www.w3.org/2000/svg">
<path fill-rule="evenodd" clip-rule="evenodd" d="M32.6391 2.35402C31.4873 5.99088 30.4566 14.5699 30.022 24.1385L29.6457 32.4341L26.4599 27.2351C22.508 20.787 20.0743 17.8147 16.8496 15.4985C12.8843 12.6505 12.8913 12.6095 16.1309 19.7918C19.2504 26.7077 22.1083 29.8458 27.0839 31.8167L29.8949 32.9305V36.1777V39.4248H14.9427C3.30793 39.4248 -0.00746348 39.5568 1.26082e-05 40.0203C0.00549507 40.3481 2.42177 50.3702 5.37033 62.2922L10.7307 83.9685L33.3962 84.0919L56.0612 84.2148L61.2521 62.8919C64.1075 51.1639 66.5447 41.086 66.6683 40.4967L66.893 39.4248H51.6922H36.4908L36.2381 22.1552C35.9849 4.84037 35.5518 0.484143 34.0356 0.0086934C33.6828 -0.101832 33.1156 0.850497 32.6391 2.35402ZM48.7162 10.38C47.4622 11.1741 45.6659 12.7277 44.7245 13.8334C42.7104 16.1978 36.724 25.6258 37.0435 25.9312C37.4039 26.2756 40.9331 24.7159 42.6885 23.4363C43.5866 22.7817 45.0499 21.2339 45.9401 19.9971C47.5414 17.7723 51.5461 9.46291 51.1838 9.11656C51.0806 9.01747 49.9702 9.58629 48.7162 10.38ZM36.4021 42.1641C36.438 45.6133 37.2623 47.8957 38.8896 49.0482C39.5879 49.5427 42.055 50.3144 44.3721 50.7627C46.6892 51.211 48.6629 51.7913 48.7581 52.0519C49.0945 52.9742 45.193 53.806 41.6074 53.5768C39.6886 53.4539 37.7443 53.2048 37.2867 53.0228C36.588 52.7446 36.4115 53.0966 36.1798 55.229C34.6896 68.9451 34.3153 70.8674 33.1345 70.8674C32.0824 70.8674 31.422 67.8937 30.7257 60.0197C30.1481 53.4854 30.0379 53.0118 29.1278 53.1414C23.467 53.948 17.526 53.4058 17.2733 52.0605C17.2249 51.8041 18.6434 51.3616 20.4252 51.0762C28.1146 49.8452 29.3651 48.8009 29.7608 43.2799L30.0374 39.4248H33.2058H36.3742L36.4021 42.1641Z" fill="#9AA86B"/>
</svg>
